{
    "asset" : {
        "generator" : "Khronos glTF Blender I/O v1.6.16",
        "version" : "2.0"
    },
    "scene" : 0,
    "scenes" : [
        {
            "name" : "Scene",
            "nodes" : [
                0,
                1,
                2,
                3,
                4,
                5
            ]
        }
    ],
    "nodes" : [
        {
            "mesh" : 0,
            "name" : "mug_main",
            "rotation" : [
                -0.1905701905488968,
                0.6840016841888428,
                0.6884533762931824,
                0.14783982932567596
            ],
            "translation" : [
                0,
                0.39967572689056396,
                0.42948246002197266
            ]
        },
        {
            "mesh" : 1,
            "name" : "mug_texture",
            "rotation" : [
                -0.19057020545005798,
                0.6840018033981323,
                0.6884532570838928,
                0.14783984422683716
            ],
            "translation" : [
                0,
                0.39967572689056396,
                0.42948246002197266
            ]
        },
        {
            "name" : "Camera.001",
            "rotation" : [
                0.483536034822464,
                0.33687159419059753,
                -0.20870360732078552,
                0.7804827094078064
            ],
            "translation" : [
                7.358891487121582,
                4.958309173583984,
                6.925790786743164
            ]
        },
        {
            "name" : "Light.002",
            "rotation" : [
                0.16907575726509094,
                0.7558803558349609,
                -0.27217137813568115,
                0.570947527885437
            ],
            "translation" : [
                11.072379112243652,
                14.312992095947266,
                -2.1054115295410156
            ]
        },
        {
            "name" : "Light",
            "rotation" : [
                0.16907575726509094,
                0.7558803558349609,
                -0.27217137813568115,
                0.570947527885437
            ],
            "translation" : [
                4.076245307922363,
                5.903861999511719,
                -1.0054539442062378
            ]
        },
        {
            "name" : "Camera",
            "rotation" : [
                0.483536034822464,
                0.33687159419059753,
                -0.20870360732078552,
                0.7804827094078064
            ],
            "translation" : [
                7.358891487121582,
                4.958309173583984,
                6.925790786743164
            ]
        }
    ],
    "materials" : [
        {
            "doubleSided" : true,
            "name" : "Material.004",
            "pbrMetallicRoughness" : {
                "metallicFactor" : 0.0872483178973198,
                "roughnessFactor" : 0.5
            }
        },
        {
            "doubleSided" : true,
            "name" : "Material.007",
            "pbrMetallicRoughness" : {
                "baseColorTexture" : {
                    "index" : 0
                },
                "metallicFactor" : 0,
                "roughnessFactor" : 0.5
            }
        }
    ],
    "meshes" : [
        {
            "name" : "Mug_Porcelain PBR.001_0",
            "primitives" : [
                {
                    "attributes" : {
                        "POSITION" : 0,
                        "NORMAL" : 1,
                        "TEXCOORD_0" : 2
                    },
                    "indices" : 3,
                    "material" : 0
                }
            ]
        },
        {
            "name" : "Mug_Porcelain PBR.001_0.001",
            "primitives" : [
                {
                    "attributes" : {
                        "POSITION" : 4,
                        "NORMAL" : 5,
                        "TEXCOORD_0" : 6
                    },
                    "indices" : 7,
                    "material" : 1
                }
            ]
        }
    ],
    "textures" : [
        {
            "sampler" : 0,
            "source" : 0
        }
    ],
    "images" : [
        {
            "bufferView" : 8,
            "mimeType" : "image/png",
            "name" : "github_PNG28"
        }
    ],
    "accessors" : [
        {
            "bufferView" : 0,
            "componentType" : 5126,
            "count" : 8551,
            "max" : [
                0.47541841864585876,
                0.39807891845703125,
                0.522427499294281
            ],
            "min" : [
                -0.6907994747161865,
                -0.39807814359664917,
                -0.427572637796402
            ],
            "type" : "VEC3"
        },
        {
            "bufferView" : 1,
            "componentType" : 5126,
            "count" : 8551,
            "type" : "VEC3"
        },
        {
            "bufferView" : 2,
            "componentType" : 5126,
            "count" : 8551,
            "type" : "VEC2"
        },
        {
            "bufferView" : 3,
            "componentType" : 5123,
            "count" : 40512,
            "type" : "SCALAR"
        },
        {
            "bufferView" : 4,
            "componentType" : 5126,
            "count" : 504,
            "max" : [
                0.05834898352622986,
                0.39807891845703125,
                0.4511774182319641
            ],
            "min" : [
                -0.66049724817276,
                0.15233883261680603,
                -0.3088225722312927
            ],
            "type" : "VEC3"
        },
        {
            "bufferView" : 5,
            "componentType" : 5126,
            "count" : 504,
            "type" : "VEC3"
        },
        {
            "bufferView" : 6,
            "componentType" : 5126,
            "count" : 504,
            "type" : "VEC2"
        },
        {
            "bufferView" : 7,
            "componentType" : 5123,
            "count" : 2760,
            "type" : "SCALAR"
        }
    ],
    "bufferViews" : [
        {
            "buffer" : 0,
            "byteLength" : 102612,
            "byteOffset" : 0
        },
        {
            "buffer" : 0,
            "byteLength" : 102612,
            "byteOffset" : 102612
        },
        {
            "buffer" : 0,
            "byteLength" : 68408,
            "byteOffset" : 205224
        },
        {
            "buffer" : 0,
            "byteLength" : 81024,
            "byteOffset" : 273632
        },
        {
            "buffer" : 0,
            "byteLength" : 6048,
            "byteOffset" : 354656
        },
        {
            "buffer" : 0,
            "byteLength" : 6048,
            "byteOffset" : 360704
        },
        {
            "buffer" : 0,
            "byteLength" : 4032,
            "byteOffset" : 366752
        },
        {
            "buffer" : 0,
            "byteLength" : 5520,
            "byteOffset" : 370784
        },
        {
            "buffer" : 0,
            "byteLength" : 70117,
            "byteOffset" : 376304
        }
    ],
    "samplers" : [
        {
            "magFilter" : 9729,
            "minFilter" : 9987,
            "wrapS" : 33071,
            "wrapT" : 33071
        }
    ],
    "buffers" : [
        {
            "byteLength" : 446424,
            "uri" : "data:application/octet-stream;base64,"
        }
    ]
}
